<svg xmlns="http://www.w3.org/2000/svg" id="sw-js-blob-svg" viewBox="0 0 100 100" version="1.1">
                    <defs> 
                        <linearGradient id="sw-gradient" x1="0" x2="1" y1="1" y2="0">
                            <stop id="stop1" stop-color="rgba(248, 117, 55, 1)" offset="0%"/>
                            <stop id="stop2" stop-color="rgba(251, 168, 31, 1)" offset="100%"/>
                        </linearGradient>
                    </defs>
                <path fill="url(#sw-gradient)" d="M26.5,-35.5C34.5,-30.8,41,-23.1,44.2,-14.1C47.4,-5.2,47.3,5.1,44.1,14.2C41,23.3,34.7,31.3,26.9,35C19,38.8,9.5,38.3,1.4,36.3C-6.6,34.3,-13.2,30.8,-20.7,26.9C-28.2,23.1,-36.5,18.8,-39.1,12.4C-41.6,5.9,-38.5,-2.8,-35.2,-11C-31.9,-19.2,-28.6,-27,-22.7,-32.4C-16.9,-37.8,-8.4,-40.8,0.4,-41.4C9.3,-42,18.6,-40.2,26.5,-35.5Z" width="100%" height="100%" transform="translate(50 50)" stroke-width="0" style="transition: all 0.3s ease 0s;"/>
                <text x="50%" y="50%" dominant-baseline="middle" text-anchor="middle">VP</text>    
              </svg>